<?xml version="1.0" standalone="yes"?>
<svg xmlns="http://www.w3.org/2000/svg" width="1922" height="1104">
<path style="fill:#ffffff; stroke:none;" d="M0 0L0 1104L1922 1104L1922 0L0 0z"/>
<path style="fill:#fdc615; stroke:none;" d="M840 107.439C827.428 109.403 815.59 115.127 807.326 125.001C790.326 145.31 790.325 180.691 807.326 200.999C819.872 215.987 841.132 221.508 860 218.561C872.487 216.611 884.462 210.809 892.674 200.999C909.644 180.728 909.594 145.278 892.674 125C880.053 109.873 859.028 104.467 840 107.439M1316 205L1318 217L1337 217L1337 153L1283 153L1283 176L1310 176C1303.35 191.875 1283.55 197.657 1270.17 185.532C1259.41 175.775 1257.69 156.548 1266.53 145.001C1269.33 141.351 1272.85 138.164 1277 136.139C1282.13 133.635 1287.42 132.963 1293 133.924C1301.87 135.453 1307.22 141.436 1315 145C1318.35 139.942 1326.77 130.278 1326.41 124.015C1326.23 120.914 1323.29 118.854 1321 117.209C1315.86 113.524 1310.03 110.873 1304 109.039C1279.69 101.651 1251.55 110.92 1238.45 133C1227.23 151.935 1227.6 181.015 1240.59 198.999C1258.28 223.471 1295.06 225.768 1316 205M1406 107.439C1393.43 109.403 1381.59 115.127 1373.33 125.001C1356.29 145.356 1356.29 180.644 1373.33 200.999C1385.93 216.057 1407.03 221.525 1426 218.561C1437.02 216.84 1448.05 212.032 1455.91 203.96C1475.17 184.186 1476.5 147.592 1459.48 126C1447.03 110.198 1425.38 104.411 1406 107.439M455 109L455 217L535 217L535 190L483 190L483 176L530 176L530 150L483 150L483 136L534 136L534 109L455 109M562 109L562 162C562 174.857 562.098 189.617 568.93 201C584.591 227.092 636.211 226.009 650.367 199C656.565 187.174 656 173.931 656 161L656 109L628 109L628 154C628 162.114 629.1 171.127 626.829 179C623.547 190.383 609.218 196.256 599.015 189.297C590.607 183.562 591 174.014 591 165L591 109L562 109M687 109L687 217L715 217L715 188C718.771 188 724.32 186.999 727.671 189.028C736.756 194.527 737.44 210.386 746.379 215.972C749.246 217.764 753.776 217 757 217L781 217C779.313 211.714 775.748 207.558 772.67 203C767.222 194.932 761.669 186.915 756 179C778.338 167.404 776.892 130.27 757 117.387C737.49 104.752 709.088 109 687 109M993 217L1014 217C1016.62 216.999 1020.22 217.546 1022.5 215.972C1028.89 211.569 1025.36 198.925 1035.02 198.059C1041.57 197.47 1048.42 197.986 1055 198C1057.79 198.006 1061.23 197.607 1063.49 199.603C1067.98 203.577 1066.81 213.66 1072.42 216.397C1075.08 217.693 1079.13 217 1082 217L1103 217C1101.71 208.403 1097.21 200.039 1094 192C1087.87 176.667 1081.69 161.35 1075.6 146C1072.43 138.014 1069.39 129.979 1066.2 122C1064.83 118.587 1063.79 114.292 1061.59 111.318C1058.37 106.982 1047.8 108.968 1043 109.001C1040.86 109.016 1038.3 108.785 1036.42 110.028C1033.93 111.673 1033.04 115.388 1032 118C1029.35 124.646 1026.86 131.354 1024.2 138C1013.73 164.182 1002.04 190.292 993 217M1122 109L1122 217L1151 217L1151 188C1154.72 188 1160.33 186.976 1163.62 189.028C1172.64 194.654 1173.21 210.453 1182.33 215.972C1185.25 217.742 1189.73 217 1193 217L1217 217C1213.58 207.988 1206.43 199.817 1200.86 192C1198.59 188.814 1194.94 185.009 1193.88 181.184C1192.83 177.44 1199.81 172.883 1201.78 169.999C1206.56 163.004 1208.19 154.329 1207.99 146C1207.9 142.294 1207.32 138.548 1206.23 135C1197.4 106.415 1161.73 109 1138 109L1122 109z"/>
<path style="fill:#ffffff; stroke:none;" d="M846 133.468C813.136 139.655 820.437 198.051 855 191.532C887.407 185.421 880.287 127.012 846 133.468M1412 133.468C1379.11 139.661 1386.36 198.065 1421 191.532C1453.33 185.434 1446.3 127.009 1412 133.468M715 134L715 164C721.538 164 728.987 164.666 734.996 161.547C744.117 156.812 745.567 143.772 736.956 137.703C730.99 133.498 721.948 134 715 134M1151 134L1151 164C1157.54 164 1164.99 164.667 1171 161.547C1179.76 156.999 1181.26 143.563 1172.96 137.703C1167 133.495 1157.94 134 1151 134M1047 147C1043.98 156.276 1040.2 165.493 1038 175L1056 175C1053.99 166.219 1051.8 154.631 1047 147z"/>
<path style="fill:#fdc615; stroke:none;" d="M928 164L928 187L977 187L977 164L928 164z"/>
<path style="fill:#00719f; stroke:none;" d="M862 480C850.649 483.34 839.332 493.887 831 502.015C811.94 520.606 796.101 541.395 785.579 566C782.534 573.12 778.385 581.218 777.555 589C777.071 593.539 778.836 598.529 779.586 603C780.979 611.302 782.033 619.628 782.83 628C784.514 645.687 782.717 664.582 779.576 682C763.113 773.279 693.581 847.591 604 871.116C575.84 878.511 545.811 880.026 517 876.282C487.692 872.473 460.092 862.995 434 849.219C411.15 837.155 389.997 820.221 372.834 801C354.173 780.101 338.767 756.942 328.012 731C289.145 637.259 317.417 529.572 393 463.155C418.816 440.47 449.993 423.846 483 414.427C515.31 405.207 549.875 402.878 583 408.435C598.447 411.027 612.853 416.496 628 420C642.136 394.634 664.38 372.13 685 352.015C693.25 343.967 704.274 337.352 711 328C673.134 308.08 629.793 293.748 587 290C518.458 283.997 451.283 293.903 389 324.259C365.837 335.549 344.076 350.116 324 366.2C210.888 456.822 166.226 611.44 208.975 749C222.173 791.469 243.775 831.661 272.084 866C301.435 901.603 337.353 931.706 378 953.691C470.044 1003.48 581.9 1009.26 679 970.796C718.254 955.246 753.365 932.035 785 904.285C814.344 878.545 839.135 846.306 857.691 812C898.366 736.802 911.016 648.491 892.576 565C885.949 534.997 873.715 508.138 862 480z"/>
<path style="fill:#fdc615; stroke:none;" d="M606 822C617.805 820.256 629.749 813.698 640 807.85C667.264 792.294 690.753 770.724 707.424 744C713.535 734.203 721.322 722.495 723.621 711C725.93 699.455 724 685.767 724 674C724 646.276 723.403 619.273 729.211 592C751.849 485.698 851.325 405.179 960 405.179C1068.1 405.179 1168.2 484.927 1190.79 591C1196.43 617.505 1197 644.006 1197 671C1197 684.331 1194.76 699.927 1197.38 713C1199.67 724.467 1207.87 736.283 1214.05 746C1230.72 772.179 1254.15 793.008 1281 808.281C1290.96 813.944 1302.54 820.308 1314 822L1314 699C1314 668.821 1315.69 638.038 1312.83 608C1308.26 559.974 1293.62 513.393 1270.69 471C1253.08 438.443 1229.67 409.425 1203 383.961C1080.47 266.991 883.187 256.483 748 357.873C720.495 378.502 695.437 403.194 675.151 431C640.595 478.367 618.016 532.975 609.427 591C604.728 622.751 606 654.979 606 687L606 822z"/>
<path style="fill:#00719f; stroke:none;" d="M1209 328C1214.77 335.842 1223.88 341.458 1231 348.089C1245 361.132 1258.27 375.194 1270.39 390C1275.69 396.478 1280.71 403.193 1285.58 410C1287.56 412.772 1289.79 417.384 1293.17 418.647C1296.18 419.768 1300.15 417.578 1303 416.72C1310.28 414.529 1317.6 412.583 1325 410.881C1346.61 405.913 1368.98 404.582 1391 406.089C1491.68 412.984 1574.92 487.579 1602 583L1490 583L1434 583C1420.03 583 1405.88 582.371 1393 588.81C1354.01 608.303 1348.71 666.51 1386 690.899C1408.7 705.746 1439.22 701 1465 701L1635 701C1661.71 701 1691.55 704.469 1711.71 682.911C1730.59 662.721 1728.71 635.458 1726.17 610C1720.12 549.465 1700.42 489.851 1664.86 440C1642.92 409.241 1617.29 381.616 1587 358.895C1513.87 304.045 1420.74 278.994 1330 290.285C1303.18 293.622 1276.31 299.881 1251 309.425C1236.6 314.856 1223.15 322.108 1209 328M1058 480C1051.33 496.035 1043.62 511.515 1038 528C1026.09 562.971 1019.92 600.141 1019.01 637C1016.74 730.014 1055.27 823.636 1120.01 890C1156.63 927.528 1202.05 956.115 1251 974.575C1284.96 987.381 1320.96 993.443 1357 995.911C1388.68 998.08 1421.24 996 1453 996L1554 996C1570.88 996 1588.17 997.09 1605 995.911C1653.11 992.538 1675.42 931.957 1643.25 897.17C1625.43 877.911 1602.31 878 1578 878L1490 878L1401 878C1379.93 878 1358.88 878.814 1338 875.576C1281.39 866.796 1229.21 836.829 1192.44 793C1158.92 753.051 1140.63 703.737 1137.09 652C1136.16 638.396 1137.47 624.468 1139.28 611C1140.19 604.282 1143.05 596.742 1142.73 590C1142.47 584.713 1139.75 578.929 1137.95 574C1127.51 545.531 1109.28 520.317 1087 500C1079.15 492.841 1068.57 482.484 1058 480z"/>
</svg>
